<svg id="visual" viewBox="0 0 1600 900" width="1600" height="900" xmlns="http://www.w3.org/2000/svg" xmlns:xlink="http://www.w3.org/1999/xlink" version="1.1"><rect x="0" y="0" width="1600" height="900" fill="#001220"></rect><path d="M0 254L29.7 243.8C59.3 233.7 118.7 213.3 178 214.2C237.3 215 296.7 237 355.8 250C415 263 474 267 533.2 262.7C592.3 258.3 651.7 245.7 711 236.3C770.3 227 829.7 221 889 232C948.3 243 1007.7 271 1066.8 267.8C1126 264.7 1185 230.3 1244.2 222.5C1303.3 214.7 1362.7 233.3 1422 246.5C1481.3 259.7 1540.7 267.3 1570.3 271.2L1600 275L1600 0L1570.3 0C1540.7 0 1481.3 0 1422 0C1362.7 0 1303.3 0 1244.2 0C1185 0 1126 0 1066.8 0C1007.7 0 948.3 0 889 0C829.7 0 770.3 0 711 0C651.7 0 592.3 0 533.2 0C474 0 415 0 355.8 0C296.7 0 237.3 0 178 0C118.7 0 59.3 0 29.7 0L0 0Z" fill="#162944"></path><path d="M0 162L29.7 164.3C59.3 166.7 118.7 171.3 178 170.2C237.3 169 296.7 162 355.8 155.7C415 149.3 474 143.7 533.2 143.2C592.3 142.7 651.7 147.3 711 149.8C770.3 152.3 829.7 152.7 889 165.5C948.3 178.3 1007.7 203.7 1066.8 213.7C1126 223.7 1185 218.3 1244.2 217.3C1303.3 216.3 1362.7 219.7 1422 222C1481.3 224.3 1540.7 225.7 1570.3 226.3L1600 227L1600 0L1570.3 0C1540.7 0 1481.3 0 1422 0C1362.7 0 1303.3 0 1244.2 0C1185 0 1126 0 1066.8 0C1007.7 0 948.3 0 889 0C829.7 0 770.3 0 711 0C651.7 0 592.3 0 533.2 0C474 0 415 0 355.8 0C296.7 0 237.3 0 178 0C118.7 0 59.3 0 29.7 0L0 0Z" fill="#433468"></path><path d="M0 100L29.7 108.8C59.3 117.7 118.7 135.3 178 136.7C237.3 138 296.7 123 355.8 112.2C415 101.3 474 94.7 533.2 96.7C592.3 98.7 651.7 109.3 711 109.8C770.3 110.3 829.7 100.7 889 97.3C948.3 94 1007.7 97 1066.8 107.7C1126 118.3 1185 136.7 1244.2 134.2C1303.3 131.7 1362.7 108.3 1422 100.2C1481.3 92 1540.7 99 1570.3 102.5L1600 106L1600 0L1570.3 0C1540.7 0 1481.3 0 1422 0C1362.7 0 1303.3 0 1244.2 0C1185 0 1126 0 1066.8 0C1007.7 0 948.3 0 889 0C829.7 0 770.3 0 711 0C651.7 0 592.3 0 533.2 0C474 0 415 0 355.8 0C296.7 0 237.3 0 178 0C118.7 0 59.3 0 29.7 0L0 0Z" fill="#853277"></path><path d="M0 96L29.7 87.7C59.3 79.3 118.7 62.7 178 56C237.3 49.3 296.7 52.7 355.8 57.2C415 61.7 474 67.3 533.2 63.8C592.3 60.3 651.7 47.7 711 52.7C770.3 57.7 829.7 80.3 889 81.8C948.3 83.3 1007.7 63.7 1066.8 62.7C1126 61.7 1185 79.3 1244.2 88.2C1303.3 97 1362.7 97 1422 91.8C1481.3 86.7 1540.7 76.3 1570.3 71.2L1600 66L1600 0L1570.3 0C1540.7 0 1481.3 0 1422 0C1362.7 0 1303.3 0 1244.2 0C1185 0 1126 0 1066.8 0C1007.7 0 948.3 0 889 0C829.7 0 770.3 0 711 0C651.7 0 592.3 0 533.2 0C474 0 415 0 355.8 0C296.7 0 237.3 0 178 0C118.7 0 59.3 0 29.7 0L0 0Z" fill="#c62368"></path></svg>