<svg id="visual" viewBox="0 0 1600 900" width="1600" height="900" xmlns="http://www.w3.org/2000/svg" xmlns:xlink="http://www.w3.org/1999/xlink" version="1.1"><rect x="0" y="0" width="1600" height="900" fill="#001220"></rect><path d="M0 318L29.7 305.2C59.3 292.3 118.7 266.7 178 267.7C237.3 268.7 296.7 296.3 355.8 312.7C415 329 474 334 533.2 328.5C592.3 323 651.7 307 711 295.3C770.3 283.7 829.7 276.3 889 290.2C948.3 304 1007.7 339 1066.8 335.2C1126 331.3 1185 288.7 1244.2 279C1303.3 269.3 1362.7 292.7 1422 309C1481.3 325.3 1540.7 334.7 1570.3 339.3L1600 344L1600 0L1570.3 0C1540.7 0 1481.3 0 1422 0C1362.7 0 1303.3 0 1244.2 0C1185 0 1126 0 1066.8 0C1007.7 0 948.3 0 889 0C829.7 0 770.3 0 711 0C651.7 0 592.3 0 533.2 0C474 0 415 0 355.8 0C296.7 0 237.3 0 178 0C118.7 0 59.3 0 29.7 0L0 0Z" fill="#162944"></path><path d="M0 203L29.7 206C59.3 209 118.7 215 178 213.5C237.3 212 296.7 203 355.8 195C415 187 474 180 533.2 179.5C592.3 179 651.7 185 711 188.2C770.3 191.3 829.7 191.7 889 207.5C948.3 223.3 1007.7 254.7 1066.8 267.2C1126 279.7 1185 273.3 1244.2 272C1303.3 270.7 1362.7 274.3 1422 277C1481.3 279.7 1540.7 281.3 1570.3 282.2L1600 283L1600 0L1570.3 0C1540.7 0 1481.3 0 1422 0C1362.7 0 1303.3 0 1244.2 0C1185 0 1126 0 1066.8 0C1007.7 0 948.3 0 889 0C829.7 0 770.3 0 711 0C651.7 0 592.3 0 533.2 0C474 0 415 0 355.8 0C296.7 0 237.3 0 178 0C118.7 0 59.3 0 29.7 0L0 0Z" fill="#433468"></path><path d="M0 126L29.7 136.8C59.3 147.7 118.7 169.3 178 171C237.3 172.7 296.7 154.3 355.8 141C415 127.7 474 119.3 533.2 121.8C592.3 124.3 651.7 137.7 711 138.2C770.3 138.7 829.7 126.3 889 122C948.3 117.7 1007.7 121.3 1066.8 134.8C1126 148.3 1185 171.7 1244.2 168.7C1303.3 165.7 1362.7 136.3 1422 126C1481.3 115.7 1540.7 124.3 1570.3 128.7L1600 133L1600 0L1570.3 0C1540.7 0 1481.3 0 1422 0C1362.7 0 1303.3 0 1244.2 0C1185 0 1126 0 1066.8 0C1007.7 0 948.3 0 889 0C829.7 0 770.3 0 711 0C651.7 0 592.3 0 533.2 0C474 0 415 0 355.8 0C296.7 0 237.3 0 178 0C118.7 0 59.3 0 29.7 0L0 0Z" fill="#853277"></path><path d="M0 120L29.7 109.7C59.3 99.3 118.7 78.7 178 70.3C237.3 62 296.7 66 355.8 71.5C415 77 474 84 533.2 79.7C592.3 75.3 651.7 59.7 711 65.8C770.3 72 829.7 100 889 102C948.3 104 1007.7 80 1066.8 79C1126 78 1185 100 1244.2 110.8C1303.3 121.7 1362.7 121.3 1422 114.7C1481.3 108 1540.7 95 1570.3 88.5L1600 82L1600 0L1570.3 0C1540.7 0 1481.3 0 1422 0C1362.7 0 1303.3 0 1244.2 0C1185 0 1126 0 1066.8 0C1007.7 0 948.3 0 889 0C829.7 0 770.3 0 711 0C651.7 0 592.3 0 533.2 0C474 0 415 0 355.8 0C296.7 0 237.3 0 178 0C118.7 0 59.3 0 29.7 0L0 0Z" fill="#c62368"></path></svg>