<svg id="visual" viewBox="0 0 900 600" width="900" height="600" xmlns="http://www.w3.org/2000/svg" xmlns:xlink="http://www.w3.org/1999/xlink" version="1.1"><rect x="0" y="0" width="900" height="600" fill="#001220"></rect><path d="M0 233L21.5 227.8C43 222.7 86 212.3 128.8 203.8C171.7 195.3 214.3 188.7 257.2 191.2C300 193.7 343 205.3 385.8 200.7C428.7 196 471.3 175 514.2 169.3C557 163.7 600 173.3 642.8 187.5C685.7 201.7 728.3 220.3 771.2 224C814 227.7 857 216.3 878.5 210.7L900 205L900 0L878.5 0C857 0 814 0 771.2 0C728.3 0 685.7 0 642.8 0C600 0 557 0 514.2 0C471.3 0 428.7 0 385.8 0C343 0 300 0 257.2 0C214.3 0 171.7 0 128.8 0C86 0 43 0 21.5 0L0 0Z" fill="#162944"></path><path d="M0 163L21.5 155.8C43 148.7 86 134.3 128.8 127C171.7 119.7 214.3 119.3 257.2 127.3C300 135.3 343 151.7 385.8 161.3C428.7 171 471.3 174 514.2 171.5C557 169 600 161 642.8 160.7C685.7 160.3 728.3 167.7 771.2 163.2C814 158.7 857 142.3 878.5 134.2L900 126L900 0L878.5 0C857 0 814 0 771.2 0C728.3 0 685.7 0 642.8 0C600 0 557 0 514.2 0C471.3 0 428.7 0 385.8 0C343 0 300 0 257.2 0C214.3 0 171.7 0 128.8 0C86 0 43 0 21.5 0L0 0Z" fill="#353261"></path><path d="M0 101L21.5 107.8C43 114.7 86 128.3 128.8 127.3C171.7 126.3 214.3 110.7 257.2 108C300 105.3 343 115.7 385.8 119.3C428.7 123 471.3 120 514.2 124.8C557 129.7 600 142.3 642.8 148.3C685.7 154.3 728.3 153.7 771.2 154.5C814 155.3 857 157.7 878.5 158.8L900 160L900 0L878.5 0C857 0 814 0 771.2 0C728.3 0 685.7 0 642.8 0C600 0 557 0 514.2 0C471.3 0 428.7 0 385.8 0C343 0 300 0 257.2 0C214.3 0 171.7 0 128.8 0C86 0 43 0 21.5 0L0 0Z" fill="#633573"></path><path d="M0 58L21.5 61.2C43 64.3 86 70.7 128.8 78C171.7 85.3 214.3 93.7 257.2 90.2C300 86.7 343 71.3 385.8 68.5C428.7 65.7 471.3 75.3 514.2 75.5C557 75.7 600 66.3 642.8 63.8C685.7 61.3 728.3 65.7 771.2 67.7C814 69.7 857 69.3 878.5 69.2L900 69L900 0L878.5 0C857 0 814 0 771.2 0C728.3 0 685.7 0 642.8 0C600 0 557 0 514.2 0C471.3 0 428.7 0 385.8 0C343 0 300 0 257.2 0C214.3 0 171.7 0 128.8 0C86 0 43 0 21.5 0L0 0Z" fill="#962e76"></path><path d="M0 60L21.5 56.7C43 53.3 86 46.7 128.8 47.5C171.7 48.3 214.3 56.7 257.2 60.3C300 64 343 63 385.8 57.5C428.7 52 471.3 42 514.2 40.3C557 38.7 600 45.3 642.8 51C685.7 56.7 728.3 61.3 771.2 61.7C814 62 857 58 878.5 56L900 54L900 0L878.5 0C857 0 814 0 771.2 0C728.3 0 685.7 0 642.8 0C600 0 557 0 514.2 0C471.3 0 428.7 0 385.8 0C343 0 300 0 257.2 0C214.3 0 171.7 0 128.8 0C86 0 43 0 21.5 0L0 0Z" fill="#c62368"></path></svg>